name ./resultDataOpenSim/trcMotMarkerGrf/sub06/grf-13-02.mot
datacolumns 19
datarows 20
range 1.07200000 1.14800000
endheader

                time	     ground_force_vx	     ground_force_vy	     ground_force_vz	     ground_force_px	     ground_force_py	     ground_force_pz	   l_ground_force_vx	   l_ground_force_vy	   l_ground_force_vz	   l_ground_force_px	   l_ground_force_py	   l_ground_force_pz	     ground_torque_x	     ground_torque_y	     ground_torque_z	   l_ground_torque_x	   l_ground_torque_y	   l_ground_torque_z	
          1.07200000	          0.00000000	          0.00000000	          0.00000000	          0.00000000	          0.00000000	          0.00000000	        161.93837670	        711.39062880	         12.45661566	          0.09727425	         -0.05000100	         -0.09674093	          0.00000000	          0.00000000	          0.00000000	          0.00000000	         -2.29187108	          0.00000000	
          1.07600000	          0.00000000	          0.00000000	          0.00000000	          0.00000000	          0.00000000	          0.00000000	        167.71941956	        708.76218778	         11.74887603	          0.09812981	         -0.05000100	         -0.09625945	          0.00000000	          0.00000000	          0.00000000	          0.00000000	         -2.28305777	          0.00000000	
          1.08000000	          0.00000000	          0.00000000	          0.00000000	          0.00000000	          0.00000000	          0.00000000	        173.20040452	        703.66876038	         11.10254811	          0.09895146	         -0.05000080	         -0.09578003	          0.00000000	          0.00000000	          0.00000000	          0.00000000	         -2.25434041	          0.00000000	
          1.08400000	          0.00000000	          0.00000000	          0.00000000	          0.00000000	          0.00000000	          0.00000000	        178.34888418	        696.09768703	         10.52601148	          0.09971061	         -0.05000000	         -0.09531593	          0.00000000	          0.00000000	          0.00000000	          0.00000000	         -2.20279710	          0.00000000	
          1.08800000	          0.00000000	          0.00000000	          0.00000000	          0.00000000	          0.00000000	          0.00000000	        183.11352126	        686.00912086	          9.97642473	          0.10038360	         -0.05000000	         -0.09488309	          0.00000000	          0.00000000	          0.00000000	          0.00000000	         -2.12853162	          0.00000000	
          1.09200000	          0.00000000	          0.00000000	          0.00000000	          0.00000000	          0.00000000	          0.00000000	        187.38861916	        673.32145367	          9.37916002	          0.10098290	         -0.04999992	         -0.09447621	          0.00000000	          0.00000000	          0.00000000	          0.00000000	         -2.03512295	          0.00000000	
          1.09600000	          0.00000000	          0.00000000	          0.00000000	          0.00000000	          0.00000000	          0.00000000	        191.00026085	        657.86292949	          8.67690068	          0.10154508	         -0.04999900	         -0.09407882	          0.00000000	          0.00000000	          0.00000000	          0.00000000	         -1.92896882	          0.00000000	
          1.10000000	          0.00000000	          0.00000000	          0.00000000	          0.00000000	          0.00000000	          0.00000000	        193.71791902	        639.35555064	          7.86421837	          0.10213470	         -0.04999900	         -0.09366875	          0.00000000	          0.00000000	          0.00000000	          0.00000000	         -1.81780396	          0.00000000	
          1.10400000	          0.00000000	          0.00000000	          0.00000000	          0.00000000	          0.00000000	          0.00000000	        195.27474444	        617.44134809	          6.97020503	          0.10284293	         -0.04999900	         -0.09323259	          0.00000000	          0.00000000	          0.00000000	          0.00000000	         -1.70892068	          0.00000000	
          1.10800000	          0.00000000	          0.00000000	          0.00000000	          0.00000000	          0.00000000	          0.00000000	        195.38710851	        591.75480255	          6.00899127	          0.10371815	         -0.04999808	         -0.09280241	          0.00000000	          0.00000000	          0.00000000	          0.00000000	         -1.60760132	          0.00000000	
          1.11200000	          0.00000000	          0.00000000	          0.00000000	          0.00000000	          0.00000000	          0.00000000	        193.76443948	        562.04959845	          4.96217460	          0.10477803	         -0.04999800	         -0.09240009	          0.00000000	          0.00000000	          0.00000000	          0.00000000	         -1.51610978	          0.00000000	
          1.11600000	         -2.06897363	         31.02842677	          4.40965530	          0.78402714	          0.00000000	         -0.01529171	        190.10710542	        528.26124887	          3.82019832	          0.10600207	         -0.04999772	         -0.09202661	          0.00000000	          0.47346670	          0.00000000	          0.00000000	         -1.43341941	          0.00000000	
          1.12000000	        -21.33305763	        203.75710598	         16.46034030	          0.78988172	          0.00000000	         -0.01470627	        184.10942489	        490.47833662	          2.62452186	          0.10738730	         -0.04999713	         -0.09167557	          0.00000000	          0.59802571	          0.00000000	          0.00000000	         -1.35572936	          0.00000000	
          1.12400000	        -42.02813250	        359.60949540	         27.07358109	          0.79525686	          0.00000000	         -0.01418839	        175.50826997	        448.98092601	          1.45315628	          0.10896027	         -0.04999649	         -0.09132660	          0.00000000	          0.67366216	          0.00000000	          0.00000000	         -1.27764176	          0.00000000	
          1.12800000	        -64.99136926	        486.40507609	         34.86111342	          0.80032269	          0.00000000	         -0.01360338	        164.20111618	        404.37613841	          0.38154720	          0.11075949	         -0.04999609	         -0.09096393	          0.00000000	          0.66658828	          0.00000000	          0.00000000	         -1.19370016	          0.00000000	
          1.13200000	        -90.38275910	        580.81784317	         38.65717230	          0.80494354	          0.00000000	         -0.01285041	        150.36869118	        357.72639273	         -0.53633359	          0.11286252	         -0.04999532	         -0.09060907	          0.00000000	          0.55799492	          0.00000000	          0.00000000	         -1.09999354	          0.00000000	
          1.13600000	       -117.50516777	        647.24337932	         38.00507058	          0.80939147	          0.00000000	         -0.01189047	        134.49831520	        310.58931288	         -1.28307269	          0.11532841	         -0.04999489	         -0.09031028	          0.00000000	          0.35071109	          0.00000000	          0.00000000	         -0.99548888	          0.00000000	
          1.14000000	       -145.27135673	        693.08335233	         33.32114795	          0.81425204	          0.00000000	         -0.01078379	        117.32082966	        264.83895432	         -1.89289615	          0.11812347	         -0.04999373	         -0.09006749	          0.00000000	          0.07070166	          0.00000000	          0.00000000	         -0.88249955	          0.00000000	
          1.14400000	       -172.45284553	        724.42121314	         25.72567127	          0.81974565	          0.00000000	         -0.00969482	         99.75366033	        222.20955350	         -2.42314359	          0.12111532	         -0.04999300	         -0.08983777	          0.00000000	         -0.23757655	          0.00000000	          0.00000000	         -0.76578897	          0.00000000	
          1.14800000	       -197.53920473	        745.27328712	         16.63764026	          0.82540442	          0.00000000	         -0.00880082	         82.82615549	        183.82656264	         -2.88107644	          0.12412130	         -0.04999387	         -0.08961355	          0.00000000	         -0.52141741	          0.00000000	          0.00000000	         -0.65069495	          0.00000000	
